<svg width="30" height="30" viewBox="0 0 30 30" xmlns="http://www.w3.org/2000/svg"><title>mm_ico_lovelist</title><path d="M22.676 16.21c1.735-1.66 2.574-3.234 2.574-4.726 0-1.52-.443-2.665-1.321-3.483-.889-.828-2.143-1.251-3.798-1.251-.429 0-.869.072-1.326.218-.47.149-.902.347-1.301.598-.43.27-.804.527-1.117.765a10.82 10.82 0 0 0-.872.744l-.517.489-.515-.49a10.518 10.518 0 0 0-.87-.743c-.314-.24-.688-.496-1.118-.765a5.607 5.607 0 0 0-1.302-.599 4.319 4.319 0 0 0-1.324-.217c-1.655 0-2.909.423-3.798 1.252-.878.817-1.321 1.962-1.321 3.482 0 .436.082.892.247 1.373.173.499.37.923.584 1.264.227.362.484.715.772 1.058.306.364.515.6.635.715.125.123.215.205.32.287l7.669 7.064c.008.008.001.005.022.005.023 0 .016.003.034-.014l1.896-1.743.856-.786.973-.895 3.918-3.602z" stroke="#191919" stroke-width="1.5" fill="none"/></svg>